<?xml version="1.0" encoding="UTF-8"?>
<svg width="272.38mm" height="123.79mm" version="1.1" viewBox="0 0 272.38 123.79" xmlns="http://www.w3.org/2000/svg" xmlns:cc="http://creativecommons.org/ns#" xmlns:dc="http://purl.org/dc/elements/1.1/" xmlns:rdf="http://www.w3.org/1999/02/22-rdf-syntax-ns#">
 <metadata>
  <rdf:RDF>
   <cc:Work rdf:about="">
    <dc:format>image/svg+xml</dc:format>
    <dc:type rdf:resource="http://purl.org/dc/dcmitype/StillImage"/>
    <dc:title/>
   </cc:Work>
  </rdf:RDF>
 </metadata>
 <g transform="translate(548.02 33.751)">
  <g transform="matrix(.044097 0 0 .044097 -547.95 -33.647)">
   <g transform="matrix(6.0632 0 0 6.0632 -883.1 -1286.8)">
    <path d="m166 658.44h992v-440.89h-992z" fill="#fff"/>
    <g fill="none" stroke="#262626" stroke-linecap="square" stroke-linejoin="round" stroke-miterlimit="10" stroke-width=".65972">
     <path d="m166 658.44h992"/>
     <path d="m166 658.44v-9.92"/>
     <path d="m276.22 658.44v-9.92"/>
     <path d="m386.44 658.44v-9.92"/>
     <path d="m496.67 658.44v-9.92"/>
     <path d="m606.89 658.44v-9.92"/>
     <path d="m717.11 658.44v-9.92"/>
     <path d="m827.33 658.44v-9.92"/>
     <path d="m937.56 658.44v-9.92"/>
     <path d="m1047.8 658.44v-9.92"/>
     <path d="m1158 658.44v-9.92"/>
    </g>
   </g>
   <g transform="matrix(6.0632 0 0 6.0632 123.39 2737.5)">
    <text transform="translate(-12,11)" fill="#262626" font-family="Helvetica" font-size="13.194px"><tspan x="0 4.3936019 11.729466" y="0">-10</tspan></text>
   </g>
   <g transform="matrix(6.0632 0 0 6.0632 791.68 2737.5)">
    <text transform="translate(-8,11)" fill="#262626" font-family="Helvetica" font-size="13.194px"><tspan x="0 4.3936019" y="0">-5</tspan></text>
   </g>
   <g transform="matrix(6.0632 0 0 6.0632 1460 2737.5)">
    <text transform="translate(-4,11)" fill="#262626" font-family="Helvetica" font-size="13.194px"><tspan x="0" y="0">0</tspan></text>
   </g>
   <g transform="matrix(6.0632 0 0 6.0632 2128.3 2737.5)">
    <text transform="translate(-4,11)" fill="#262626" font-family="Helvetica" font-size="13.194px"><tspan x="0" y="0">5</tspan></text>
   </g>
   <g transform="matrix(6.0632 0 0 6.0632 2796.6 2737.5)">
    <text transform="translate(-8,11)" fill="#262626" font-family="Helvetica" font-size="13.194px"><tspan x="0 7.3358641" y="0">10</tspan></text>
   </g>
   <g transform="matrix(6.0632 0 0 6.0632 3464.9 2737.5)">
    <text transform="translate(-8,11)" fill="#262626" font-family="Helvetica" font-size="13.194px"><tspan x="0 7.3358641" y="0">15</tspan></text>
   </g>
   <g transform="matrix(6.0632 0 0 6.0632 4133.2 2737.5)">
    <text transform="translate(-8,11)" fill="#262626" font-family="Helvetica" font-size="13.194px"><tspan x="0 7.3358641" y="0">20</tspan></text>
   </g>
   <g transform="matrix(6.0632 0 0 6.0632 4801.4 2737.5)">
    <text transform="translate(-8,11)" fill="#262626" font-family="Helvetica" font-size="13.194px"><tspan x="0 7.3358641" y="0">25</tspan></text>
   </g>
   <g transform="matrix(6.0632 0 0 6.0632 5469.7 2737.5)">
    <text transform="translate(-8,11)" fill="#262626" font-family="Helvetica" font-size="13.194px"><tspan x="0 7.3358641" y="0">30</tspan></text>
   </g>
   <g transform="matrix(6.0632 0 0 6.0632 6138 2737.5)">
    <text transform="translate(-8,11)" fill="#262626" font-family="Helvetica" font-size="13.194px"><tspan x="0 7.3358641" y="0">35</tspan></text>
   </g>
   <g transform="matrix(6.0632 0 0 6.0632 -883.1 -1286.8)" fill="none" stroke="#262626" stroke-linecap="square" stroke-linejoin="round" stroke-miterlimit="10" stroke-width=".65972">
    <path d="m166 658.44v-440.89"/>
    <path d="m166 658.44h9.92"/>
    <path d="m166 614.36h9.92"/>
    <path d="m166 570.27h9.92"/>
    <path d="m166 526.18h9.92"/>
    <path d="m166 482.09h9.92"/>
    <path d="m166 438h9.92"/>
    <path d="m166 393.91h9.92"/>
    <path d="m166 349.82h9.92"/>
    <path d="m166 305.73h9.92"/>
    <path d="m166 261.64h9.92"/>
    <path d="m166 217.56h9.92"/>
   </g>
   <g transform="matrix(6.0632 0 0 6.0632 91.386 2705.5)">
    <text transform="translate(-8,3.5)" fill="#262626" font-family="Helvetica" font-size="13.194px"><tspan x="0" y="0">0</tspan></text>
   </g>
   <g transform="matrix(6.0632 0 0 6.0632 91.386 2438.1)">
    <text transform="translate(-8,3.5)" fill="#262626" font-family="Helvetica" font-size="13.194px"><tspan x="0" y="0">2</tspan></text>
   </g>
   <g transform="matrix(6.0632 0 0 6.0632 91.386 2170.8)">
    <text transform="translate(-8,3.5)" fill="#262626" font-family="Helvetica" font-size="13.194px"><tspan x="0" y="0">4</tspan></text>
   </g>
   <g transform="matrix(6.0632 0 0 6.0632 91.386 1903.5)">
    <text transform="translate(-8,3.5)" fill="#262626" font-family="Helvetica" font-size="13.194px"><tspan x="0" y="0">6</tspan></text>
   </g>
   <g transform="matrix(6.0632 0 0 6.0632 91.386 1636.2)">
    <text transform="translate(-8,3.5)" fill="#262626" font-family="Helvetica" font-size="13.194px"><tspan x="0" y="0">8</tspan></text>
   </g>
   <g transform="matrix(6.0632 0 0 6.0632 91.386 1368.9)">
    <text transform="translate(-16,3.5)" fill="#262626" font-family="Helvetica" font-size="13.194px"><tspan x="0 7.3358641" y="0">10</tspan></text>
   </g>
   <g transform="matrix(6.0632 0 0 6.0632 91.386 1101.6)">
    <text transform="translate(-16,3.5)" fill="#262626" font-family="Helvetica" font-size="13.194px"><tspan x="0 7.3358641" y="0">12</tspan></text>
   </g>
   <g transform="matrix(6.0632 0 0 6.0632 91.386 834.23)">
    <text transform="translate(-16,3.5)" fill="#262626" font-family="Helvetica" font-size="13.194px"><tspan x="0 7.3358641" y="0">14</tspan></text>
   </g>
   <g transform="matrix(6.0632 0 0 6.0632 91.386 566.91)">
    <text transform="translate(-16,3.5)" fill="#262626" font-family="Helvetica" font-size="13.194px"><tspan x="0 7.3358641" y="0">16</tspan></text>
   </g>
   <g transform="matrix(6.0632 0 0 6.0632 91.386 299.6)">
    <text transform="translate(-16,3.5)" fill="#262626" font-family="Helvetica" font-size="13.194px"><tspan x="0 7.3358641" y="0">18</tspan></text>
   </g>
   <g transform="matrix(6.0632 0 0 6.0632 91.386 32.279)">
    <text transform="translate(-16,3.5)" fill="#262626" font-family="Helvetica" font-size="13.194px"><tspan x="0 7.3358641" y="0">20</tspan></text>
   </g>
   <g transform="matrix(6.0632 0 0 6.0632 -883.1 -1286.8)" fill="none" stroke="#f00" stroke-linejoin="round" stroke-miterlimit="10" stroke-width="2.6389">
    <path d="m205.11 658.44 160.96-1.2e-4"/>
    <path d="m386.44 622.25v-154.98"/>
    <path d="m439.75 458.43 67.788-93.281"/>
    <path d="m523.44 300.05 162.73-62.258"/>
    <path d="m700.41 232.4 35.653 95.376"/>
    <path d="m768.53 345.86 297.56-109.66"/>
   </g>
  </g>
 </g>
</svg>
